<svg xmlns="http://www.w3.org/2000/svg" version="1.1" xmlns:xlink="http://www.w3.org/1999/xlink" xmlns:svgjs="http://svgjs.dev/svgjs" viewBox="0 0 1422 800"><defs><linearGradient x1="50%" y1="0%" x2="50%" y2="100%" id="ssscribble-grad"><stop stop-color="hsl(185, 53%, 55%)" stop-opacity="1" offset="0%"></stop><stop stop-color="hsl(0, 73%, 55%)" stop-opacity="1" offset="100%"></stop></linearGradient></defs><g fill="none" stroke-width="2.25" stroke="url(#ssscribble-grad)" stroke-linecap="round"><path d="M1305.6 377.63C1290.25 396.78 1270.2 414.45 1248.68 430.69 1221.84 454.54 1204.9 497.59 1215.15 518.47 1226.95 533.55 1238.72 549.45 1248.11 566.79 1254.33 586.23 1254.81 607.88 1249.01 632.04 1237.66 658.24 1220.63 686.42 1199.24 715.79 1175.1 744.69 1149.45 772.18 1123.82 796.39 1099.49 815.84 1077.28 829.22 1057.75 835.51 1019.93 822.79 987.26 831.27 977.75 867.71 971.02 898.78 962.73 929.23 952.8 953.69 936.19 969.21 894.34 931.04 869.96 903.6 853.07 897.71 835.37 904.84 817.08 924.33 798.71 951.98 779.9 979.66 760.74 999.08 741.58 1004.87 722.54 994.46 703.59 971.29 684.57 942.49 665.49 915.35 646.26 896.64 626.74 890.9 606.8 897.53 586.29 912.91 565.26 932.68 543.43 949.13 520.74 957.02 497.47 954.24 473.39 939.34 448.66 914.76 423.87 884.56 399.02 853.17 374.68 825 351.5 803.36 329.97 789.67 310.89 783.61 277.27 794.13 272.46 781.56 278.81 754.69 280.26 731.38 278.72 705.39 272.98 678.12 261.7 650 245.6 622.41 225.34 595.99 201.9 570.43 177.67 546.47 155.06 524.04 135.94 502.65 122.9 482.39 117.55 462.92 119.45 444.02 128.92 425.4 144.41 406.78 162.15 388.31 180.25 369.54 195.6 350.38 204.45 331.22 206.37 312.14 201.47 293.29 189.93 274.6 175.07 256.45 159.68 239.21 140.66 214.94 141.99 176.6 164.7 163.93 186.26 157.15 210.68 152.37 235.81 149.03 259.51 144.84 280.55 140.3 297.95 134.08 310.73 124.08 319.47 110.26 324.78 91.73 326.54 68.3 326.74 40.72 326.55 10.34 325.8 -20.41 326.61 -49.17 329.67 -72.9 338.23 -93.29 373.34 -80.79 398.7 -61.26 417.9 -53.76 438.54 -54.47 460.09 -65.73 482.41 -87.66 505.05 -116.59 527.65 -147.16 550.49 -173.36 572.99 -189.14 594.96 -190.8 616.95 -179.49 638.33 -157.99 659 -132.98 679.66 -113.6 699.61 -105.13 718.77 -110.9 737.92 -130.32 755.83 -156.05 772.49 -179.92 789.14 -195.63 804.52 -197.12 818.66 -183.84 832.82 -159.5 845.81 -129.38 857.73 -100.47 875.58 -73.83 909.67 -86.91 927.79 -108.31 941.62 -118.02 956.68 -118.74 973.38 -109.28 992.22 -90.72 1013.02 -64.6 1035.73 -34.3 1060.08 -3.03 1085.57 26 1111.44 50.62 1136.73 69.44 1160.45 82.37 1181.31 90.33 1205.86 105.44 1185.04 159.65 1193.08 188.39 1206.84 209.24 1225.45 230.78 1247.12 252.43 1269.9 274.5 1290.41 296.19 1305.73 317.19 1314.43 338.26 1314.45 358.46 1305.6 377.62Q1305.6 377.63 1305.6 377.63" opacity="0.32"></path><path d="M1194.6 427.69C1167.94 458.34 1133.59 491.95 1104.18 527.11 1090.09 561.15 1090.85 594.2 1101.62 622.77 1123.18 653.1 1099.07 663.54 1049.68 666.19 1009.36 686.13 968.25 722.61 929.53 771.23 894.21 818.43 862.65 847.74 833.92 847.06 808.02 824.38 782.6 795.38 756.28 784.98 730.66 808.59 702.73 852.84 672.08 888.08 641.42 889.85 609.51 854.73 577.32 808.01 545.83 779.63 515.49 781.11 488.27 803.08 463.88 828.55 444.97 833.42 433.05 811.39 424.52 769.32 421.62 719.36 421.77 675.14 417.47 644.07 408.16 626.69 389.88 617.65 359.96 615.22 322.39 610.06 283.4 598.77 250.16 584.67 231.96 563.65 234.22 537.74 251.8 510.37 279.94 480.65 306.6 449.99 316.99 419.34 310.43 389.21 291.91 358.78 267.56 326.89 251.97 292.14 252.25 253.12 267.96 211.3 299.05 165.98 338.46 121.17 378.95 82.96 415.59 56.34 445.35 47.23 466.42 51.27 481.64 64.89 494.08 75.04 502.93 65.17 513.87 32.81 528.54 -15.11 543.75 -59.55 563.62 -78.49 587.64 -61.95 612.19 -27.06 640.07 1.84 670.72 0.09 701.37 -35.14 733.35 -73.18 766.6 -84.97 800.39 -62.75 836.28 -16.31 874.18 28.84 912.63 51.99 952.18 50.17 990.56 34.89 1025.37 18.19 1054.16 18.04 1073.27 38.28 1083.68 74.7 1083.39 120.9 1074.81 167.68 1067.32 211.01 1063.72 247.17 1070.47 277.12 1092.65 301.66 1125.69 324.37 1161.86 348.14 1192.22 370.78 1204.99 397.02 1194.6 427.68Q1194.6 427.69 1194.6 427.69" opacity="0.34"></path><path d="M1083.6 367.4C1064.61 390.39 1039.04 410.32 1012.66 427.66 991.41 445.68 976.82 462.54 969.68 479.82 971.05 500.15 976.39 523.66 982.41 551.77 989.09 584.11 991.13 620.1 987.25 656.63 979.22 689.07 964.89 713.11 945.64 723.65 923.26 721.58 898.04 707.21 871.62 686.96 844.21 673.33 816.95 671.83 790.77 687.24 764.48 717.96 739.58 752.62 716.59 777.08 693.6 782.14 673.61 763.85 656.55 730.64 632.09 682.51 592.64 669.06 573.27 689.57 557.09 699.79 538.41 698.41 516.32 684.89 490.06 661.83 460.77 631.12 430.15 597.28 400.19 562.07 374.24 528.63 356.01 498.21 346.31 469.71 347.81 443.79 360.19 419.66 377.7 396.33 398.61 373.36 417.6 350.37 427.3 327.38 427.94 305.46 420.61 285.44 385.51 242.8 416.49 222.17 457.95 213.96 488.66 197.34 519.53 171.47 549.04 137.31 576.99 99.59 602.98 65.53 627.19 43.97 649.95 38.81 671.98 52.08 693.87 78.16 715.32 102.51 737.47 116.14 760.46 111.09 783.45 86.63 806.19 56.63 828.1 34.77 849.56 28.23 869.35 42.8 886.44 73.28 902.06 110.39 913.94 145.38 921.42 171.39 929.8 182.09 959.42 193.89 992.52 220.57 1020.92 243.13 1049.38 268.09 1073.07 293.43 1089.28 319.44 1093.3 344.4 1083.6 367.39Q1083.6 367.4 1083.6 367.4" opacity="0.23"></path><path d="M972.6 437C945.95 467.65 909.2 502.34 875.64 535.15 848.52 570.64 830.25 560.79 812.01 554.84 796.36 584.31 772.6 630.84 741.95 666.08 711.3 667.85 676.65 630.64 639.19 581.49 600.89 545.7 559.88 530.87 521.2 529.29 478.13 536.61 489.79 492.24 528.6 448.5 538.99 417.85 535.99 385.63 525.4 349.88 508.91 310.2 502.29 263.3 509.18 215.33 524.13 176.75 550.48 159.06 582.06 172.38 616.06 199.07 650.26 223.85 680.91 222.08 711.56 186.84 735.76 152.73 754.88 145.73 776.42 167.55 797.91 213.24 823.13 262.29 856.41 304.81 895.54 336.74 934.5 362.32 967.56 382.63 982.99 406.34 972.6 436.99Q972.6 437 972.6 437" opacity="0.89"></path></g></svg>